<svg xmlns="http://www.w3.org/2000/svg" width="129" height="124" fill="none" viewBox="0 0 128.778 124.22"><path stroke="#000" stroke-linecap="round" stroke-linejoin="round" stroke-miterlimit="1.5" stroke-width="3.379" d="M91.378 13.658c11.649 17.435 18.3 37.363 11.576 57.739-6.07 18.392-22.61 29.286-41.605 15.64-8.992-6.459-14.827-19.494-8.984-29.18 6.508-10.79 20.953-1.23 24.872 6.113 9.152 17.15 3.223 40.278-16.913 50.725-23.844 12.372-34.107-11.278-33.918-11.284"/><path stroke="#000" stroke-linecap="round" stroke-linejoin="round" stroke-miterlimit="1.5" stroke-width="3.379" d="M116.06 18.61c-2.454.479-4.858-.003-7.285-.374-7.97-1.216-16.119-4.805-21.07-10.724 2.852 7.591 3.695 18.306-2.376 24.734"/></svg>