<svg xmlns="http://www.w3.org/2000/svg" width="53" height="53" fill="none"><path fill="currentColor" d="M46.927 36.128c-1.943 0-2.805-.75-4.02-1.81-1.346-1.15-3.025-2.607-6.182-2.607-3.18 0-4.837 1.458-6.184 2.606-1.215 1.06-2.098 1.81-4.041 1.81-1.921 0-2.805-.75-4.02-1.81-1.346-1.148-3.025-2.606-6.183-2.606-3.18 0-4.858 1.458-6.205 2.606-1.215 1.06-2.076 1.81-4.02 1.81-.905 0-1.655.752-1.655 1.657 0 .928.75 1.656 1.656 1.656 3.18 0 4.836-1.435 6.183-2.605 1.215-1.06 2.098-1.811 4.041-1.811 1.944 0 2.805.75 4.02 1.81 1.347 1.171 3.025 2.606 6.183 2.606 3.18 0 4.858-1.435 6.205-2.605 1.215-1.06 2.076-1.811 4.02-1.811 1.92 0 2.804.75 4.019 1.81 1.347 1.171 3.025 2.606 6.183 2.606.905 0 1.656-.728 1.656-1.656 0-.905-.75-1.656-1.656-1.656ZM46.927 27.03c-1.943 0-2.805-.772-4.02-1.81-1.346-1.17-3.025-2.606-6.182-2.606-3.18 0-4.837 1.435-6.184 2.606-1.215 1.038-2.098 1.81-4.041 1.81-1.921 0-2.805-.772-4.02-1.81-1.346-1.17-3.025-2.606-6.183-2.606-3.18 0-4.858 1.435-6.205 2.606-1.215 1.038-2.076 1.81-4.02 1.81-.905 0-1.655.73-1.655 1.657 0 .905.75 1.656 1.656 1.656 3.18 0 4.836-1.457 6.183-2.628 1.215-1.038 2.098-1.789 4.041-1.789 1.944 0 2.805.751 4.02 1.79 1.347 1.17 3.025 2.627 6.183 2.627 3.18 0 4.858-1.457 6.205-2.628 1.215-1.038 2.076-1.789 4.02-1.789 1.92 0 2.804.751 4.019 1.79 1.347 1.17 3.025 2.627 6.183 2.627.905 0 1.656-.75 1.656-1.656 0-.928-.75-1.656-1.656-1.656ZM6.073 21.289c3.18 0 4.836-1.458 6.183-2.606 1.215-1.06 2.098-1.811 4.041-1.811 1.944 0 2.805.75 4.02 1.81 1.347 1.15 3.025 2.607 6.183 2.607 3.18 0 4.858-1.458 6.205-2.606 1.215-1.06 2.076-1.811 4.02-1.811 1.92 0 2.804.75 4.019 1.81 1.347 1.15 3.025 2.607 6.183 2.607.905 0 1.656-.751 1.656-1.657 0-.927-.75-1.656-1.656-1.656-1.943 0-2.805-.75-4.02-1.81-1.346-1.171-3.025-2.607-6.182-2.607-3.18 0-4.837 1.436-6.184 2.606-1.215 1.06-2.098 1.811-4.041 1.811-1.921 0-2.805-.75-4.02-1.81-1.346-1.171-3.025-2.607-6.183-2.607-3.18 0-4.858 1.436-6.205 2.606-1.215 1.06-2.076 1.811-4.02 1.811-.905 0-1.655.729-1.655 1.656 0 .906.75 1.657 1.656 1.657Z"/></svg>